Coordinates
version=1
nRows=29
nColumns=24
inDegrees=yes

Units are S.I. units (second, meters, Newtons, ...)
Angles are in degrees.

endheader
time	pelvis_tilt	pelvis_list	pelvis_rotation	pelvis_tx	pelvis_ty	pelvis_tz	hip_flexion_r	hip_adduction_r	hip_rotation_r	knee_angle_r	ankle_angle_r	subtalar_angle_r	mtp_angle_r	hip_flexion_l	hip_adduction_l	hip_rotation_l	knee_angle_l	ankle_angle_l	subtalar_angle_l	mtp_angle_l	lumbar_extension	lumbar_bending	lumbar_rotation
      3.22000000	    -19.47208197	     11.00532495	     -5.14738486	     -2.36270362	     -0.03409231	     -0.26230562	     18.34511338	     -9.93491821	      3.78353729	    -57.29048301	    -41.22395334	    -12.42095675	     12.99889836	     40.37574100	     12.99817891	      3.78150101	    -23.39381241	     16.07235712	     10.70947681	    -72.02715726	     15.95542914	     -9.13204851	      8.97194887
      3.22500000	    -19.44095656	     11.10393535	     -5.26314457	     -2.35535653	     -0.03253654	     -0.26250285	     19.53857414	     -9.64653668	      4.31204731	    -58.68623048	    -39.72363455	    -13.77368695	     12.92276054	     39.43750981	     13.02170740	      3.42035961	    -22.73081417	     16.54810267	     11.31837093	    -72.01260516	     15.95434848	     -9.14973004	      8.93834812
      3.23000000	    -19.51202260	     11.09943090	     -5.28076127	     -2.34803978	     -0.03111777	     -0.26265009	     20.81461483	     -9.22804065	      4.69616258	    -60.09528340	    -37.68155857	    -14.80691827	     11.10309110	     38.62008910	     12.95800909	      3.00829418	    -22.13223049	     17.12516443	     12.15746248	    -72.30560284	     16.04395590	     -9.09414925	      8.75550210
      3.23500000	    -19.40875751	     11.19440966	     -5.45381899	     -2.34067690	     -0.02941286	     -0.26270131	     21.91168156	     -8.88120778	      5.28249288	    -61.28328758	    -36.08940354	    -15.96763053	     10.78996113	     37.51432283	     12.96684052	      2.72618295	    -21.30096141	     17.51317464	     12.69977839	    -72.37816607	     15.98054293	     -9.10956419	      8.80595089
      3.24000000	    -19.42254709	     11.19141117	     -5.46776670	     -2.33330123	     -0.02788346	     -0.26279946	     23.09085868	     -8.45914397	      5.60851623	    -62.49446529	    -33.99993229	    -16.82856117	      8.28930876	     36.54836654	     12.93289953	      2.41998100	    -20.54263362	     17.98259574	     13.41917377	    -72.90488024	     16.01719795	     -9.06955065	      8.61973563
      3.24500000	    -19.34870552	     11.20053469	     -5.59649804	     -2.32595982	     -0.02622617	     -0.26283553	     24.15044608	     -8.00776734	      6.15100444	    -63.46507914	    -32.48134664	    -17.68847001	      8.15782158	     35.45206473	     12.87918728	      2.12375026	    -19.69417637	     18.31824254	     14.04757454	    -72.95642136	     15.97148879	     -9.01103184	      8.58598017
      3.25000000	    -19.29549991	     11.18600870	     -5.71917876	     -2.31862504	     -0.02461227	     -0.26282034	     25.22199255	     -7.52369767	      6.64856982	    -64.37677836	    -30.93805939	    -18.40550404	      7.42519073	     34.36705254	     12.80151776	      1.80766623	    -18.82634887	     18.63714915	     14.69761600	    -73.12852492	     15.94906270	     -8.93453329	      8.55224995
      3.25500000	    -19.24323806	     11.12491860	     -5.68786642	     -2.31119654	     -0.02302834	     -0.26298798	     26.23369364	     -7.09990007	      6.85339090	    -65.24611534	    -29.10576581	    -18.90089813	      5.21219525	     33.25850153	     12.78477713	      1.64142675	    -17.94668831	     18.91811157	     15.25577594	    -73.63632166	     15.90500136	     -8.85373495	      8.30958550
      3.26000000	    -19.19625121	     11.07402867	     -5.76492221	     -2.30383440	     -0.02144535	     -0.26311456	     27.24631357	     -6.64332702	      7.22992711	    -65.90797053	    -28.00895390	    -19.64338218	      5.24076425	     32.11625866	     12.75101489	      1.59623380	    -16.96426763	     19.03157780	     15.58440258	    -73.66419434	     15.88144834	     -8.74000683	      8.23659272
      3.26500000	    -19.09020177	     10.95155426	     -5.76493802	     -2.29642615	     -0.01981147	     -0.26329995	     28.14550413	     -6.18104140	      7.43780648	    -66.53476532	    -26.50795038	    -19.90957432	      3.88269295	     30.88145776	     12.71032892	      1.70836964	    -15.95864624	     19.14407511	     15.84964628	    -73.97165655	     15.77268444	     -8.59106726	      8.02852077
      3.27000000	    -19.03159545	     10.87032311	     -5.82111974	     -2.28909540	     -0.01829874	     -0.26340984	     29.10865229	     -5.74395020	      7.70734997	    -67.03203578	    -25.49667657	    -20.42877065	      3.85960200	     29.72153765	     12.67310596	      1.71239688	    -14.95310675	     19.15259347	     16.07719145	    -74.01296782	     15.72552693	     -8.46367063	      7.91026839
      3.27500000	    -18.93664082	     10.71806106	     -5.83634254	     -2.28173860	     -0.01675463	     -0.26362143	     29.97362358	     -5.29118240	      7.87891126	    -67.41732776	    -24.40922236	    -20.74081608	      3.79007626	     28.48431320	     12.62138238	      1.96632413	    -13.90102007	     19.09600292	     16.09143648	    -74.07728879	     15.62287928	     -8.27737830	      7.73878801
      3.28000000	    -18.85682067	     10.51853744	     -5.81419706	     -2.27440542	     -0.01526022	     -0.26388974	     30.81880756	     -4.83343404	      7.95886606	    -67.70321327	    -23.33487090	    -20.98071416	      3.74454478	     27.25434490	     12.54962808	      2.37529762	    -12.84073167	     18.98408653	     15.95812633	    -74.13588648	     15.52059288	     -8.05075060	      7.51055300
      3.28500000	    -18.78715558	     10.28040140	     -5.76235781	     -2.26710721	     -0.01382109	     -0.26417823	     31.64289229	     -4.37528401	      7.95924530	    -67.89017136	    -22.26228789	    -21.16268477	      3.80462592	     26.03694094	     12.45225126	      2.88881382	    -11.78607751	     18.82331801	     15.71939653	    -74.17019635	     15.41984443	     -7.79618323	      7.24281167
      3.29000000	    -18.72091065	     10.00594760	     -5.68460149	     -2.25983345	     -0.01242637	     -0.26449946	     32.43387507	     -3.91818787	      7.89544330	    -67.96846588	    -21.18280339	    -21.27965346	      4.02314304	     24.82633632	     12.32787314	      3.50655029	    -10.74116280	     18.61979265	     15.37544685	    -74.17092004	     15.31096124	     -7.51362007	      6.93722700
      3.29500000	    -18.68784323	      9.71663136	     -5.61233438	     -2.25260807	     -0.01110668	     -0.26482636	     33.24038247	     -3.45598113	      7.80946201	    -67.93562127	    -20.19504162	    -21.44841225	      4.46698301	     23.63180956	     12.18248514	      4.33824847	     -9.65118244	     18.30363785	     14.76344633	    -74.07969271	     15.23345634	     -7.21051130	      6.65664552
      3.30000000	    -18.63367907	      9.39085507	     -5.50888154	     -2.24542203	     -0.00981105	     -0.26518081	     33.97866376	     -2.99792705	      7.68025372	    -67.78250173	    -19.18591767	    -21.50364904	      5.24705297	     22.44385702	     11.99965529	      5.16274459	     -8.61855296	     17.97842335	     14.18155903	    -73.91416523	     15.11746012	     -6.88623771	      6.31815739
      3.30500000	    -18.64256506	      9.01908502	     -5.32712429	     -2.23829064	     -0.00861847	     -0.26565207	     34.73380945	     -2.55930770	      7.44871008	    -67.48579378	    -18.30585839	    -21.62536447	      6.55485913	     21.35619666	     11.77978513	      6.07556547	     -7.65604225	     17.60875180	     13.56559074	    -73.57762677	     15.04972593	     -6.52742365	      5.93611595
      3.31000000	    -18.58215411	      8.67600315	     -5.21226400	     -2.23122356	     -0.00744583	     -0.26595534	     35.41159363	     -2.11015775	      7.31514243	    -67.12019550	    -17.37136058	    -21.60238154	      7.76620898	     20.23029266	     11.54254759	      6.82241147	     -6.73115524	     17.29658854	     13.06924846	    -73.35791222	     14.90984705	     -6.20050699	      5.56145831
      3.31500000	    -18.57848154	      8.30550676	     -5.02377318	     -2.22419933	     -0.00637918	     -0.26636926	     36.10812131	     -1.69916452	      7.08846914	    -66.63098470	    -16.52837914	    -21.59901280	      9.19543575	     19.19731138	     11.28594000	      7.62693413	     -5.86869228	     16.96057132	     12.54944744	    -73.08717366	     14.81618923	     -5.86191824	      5.12761492
      3.32000000	    -18.62609916	      7.91323378	     -4.73361644	     -2.21724106	     -0.00543572	     -0.26679492	     36.82889865	     -1.33490793	      6.72344589	    -66.07998602	    -15.58178401	    -21.49916960	      9.85009741	     18.36618452	     11.00874032	      7.95390298	     -5.27826857	     16.86719336	     12.67197284	    -73.00069621	     14.76032707	     -5.53668024	      4.60838106
      3.32500000	    -18.59191192	      7.59948020	     -4.59135864	     -2.21027423	     -0.00449551	     -0.26719103	     37.45566624	     -0.98345049	      6.59056978	    -65.38813489	    -14.94771121	    -21.51076587	     11.72534301	     17.28510616	     10.77449607	      8.99191369	     -4.34877784	     16.36771097	     11.77525225	    -72.66560526	     14.63659937	     -5.24003249	      4.26367766
      3.33000000	    -18.62145830	      7.26319374	     -4.32783216	     -2.20337666	     -0.00369014	     -0.26767612	     38.11134586	     -0.70166326	      6.31938645	    -64.60650545	    -14.33601706	    -21.49186514	     13.43516213	     16.43720636	     10.53716132	      9.48351971	     -3.72582264	     16.08779005	     11.60532428	    -72.20583185	     14.56119569	     -4.95672696	      3.81881517
      3.33500000	    -18.71146191	      6.93569798	     -4.03426951	     -2.19652492	     -0.00305430	     -0.26803112	     38.82152007	     -0.42183497	      6.01201396	    -63.81328368	    -13.57637766	    -21.35795122	     13.77096017	     15.75149910	     10.29173710	      9.65314118	     -3.27784274	     16.06302203	     11.84951982	    -72.17218388	     14.54764629	     -4.70807229	      3.32949569
      3.34000000	    -18.65526315	      6.68621148	     -3.77180619	     -2.18963644	     -0.00235247	     -0.26853929	     39.35495677	     -0.27353014	      5.77343842	    -62.90705974	    -12.97908878	    -21.20185512	     15.10961441	     14.78960787	     10.13323251	     10.36551909	     -2.58051319	     15.67426291	     11.36831601	    -71.94624610	     14.38204653	     -4.51984838	      2.90336280
      3.34500000	    -18.74653510	      6.42140116	     -3.45847634	     -2.18279981	     -0.00191079	     -0.26891543	     40.03154747	     -0.10204662	      5.48473252	    -61.97569033	    -12.36432955	    -21.02229893	     15.39571140	     14.15035882	      9.95015010	     10.49903762	     -2.19498988	     15.65461708	     11.62285003	    -71.90461979	     14.37660675	     -4.34294564	      2.41271511
      3.35000000	    -18.75357090	      6.19033230	     -3.10343639	     -2.17600314	     -0.00145941	     -0.26937744	     40.58282628	     -0.02290197	      5.19235471	    -60.96316776	    -11.70980866	    -20.76573295	     15.79836662	     13.43745889	      9.82068540	     10.71730577	     -1.82906548	     15.57740648	     11.80824288	    -71.85677832	     14.26493194	     -4.21545609	      1.91492823
      3.35500000	    -18.76572330	      5.98752401	     -2.78624835	     -2.16921653	     -0.00112801	     -0.26979815	     41.13359655	      0.04043165	      4.93648328	    -59.89308347	    -11.15888071	    -20.53507829	     16.19048675	     12.73066066	      9.70437266	     10.93124775	     -1.45096459	     15.49605298	     11.92650584	    -71.80696844	     14.16248075	     -4.10003917	      1.45677029
      3.36000000	    -18.67962428	      5.83701473	     -2.49216404	     -2.16245658	     -0.00077363	     -0.27020129	     41.54278133	      0.05606452	      4.78364905	    -58.68971150	    -10.86804638	    -20.49913386	     17.61069937	     11.81916551	      9.62000599	     11.70545311	     -0.86887433	     15.09122529	     11.34624552	    -71.47513452	     13.95078362	     -4.04949854	      1.05840127
